Coordinates
version=1
nRows=9
nColumns=38
inDegrees=yes

Units are S.I. units (second, meters, Newtons, ...)
If the header above contains a line with 'inDegrees', this indicates whether rotational values are in degrees (yes) or radians (no).

endheader
time	pelvis_tilt	pelvis_list	pelvis_rotation	pelvis_tx	pelvis_ty	pelvis_tz	hip_flexion_r	hip_adduction_r	hip_rotation_r	knee_angle_r	ankle_angle_r	subtalar_angle_r	mtp_angle_r	hip_flexion_l	hip_adduction_l	hip_rotation_l	knee_angle_l	ankle_angle_l	subtalar_angle_l	mtp_angle_l	lumbar_extension	lumbar_bending	lumbar_rotation	arm_flex_r	arm_add_r	arm_rot_r	elbow_flex_r	pro_sup_r	wrist_flex_r	wrist_dev_r	arm_flex_l	arm_add_l	arm_rot_l	elbow_flex_l	pro_sup_l	wrist_flex_l	wrist_dev_l
      0.90800000	      2.17159423	     -6.27167636	      6.82083623	     -2.16454050	      1.04541680	      0.23703672	     20.33245742	      5.03746946	    -12.14853508	    -16.26470286	     -7.04173454	     10.72160676	      2.16199027	     -7.92777559	     -6.86374476	      4.15043317	    -75.88523720	    -15.85548268	     -7.29924644	      0.96591647	    -12.52479733	      8.04615111	     -5.22290868	    -55.44017767	    -28.25449400	    -14.51313568	     99.86102972	      2.83745959	      0.00000000	      0.00000000	    -23.81132990	    -22.93685568	     -1.09504901	    120.84184903	      2.53104334	      0.00000000	      0.00000000
      0.91200000	      3.31600632	     -7.69845294	      7.39638784	     -2.14897278	      1.04287002	      0.23740637	     18.88429267	      6.70200257	    -12.52333538	    -16.91498933	     -5.53373422	     10.99745265	      4.44262744	     -8.01231560	     -8.82554596	      4.35938876	    -77.92722656	    -15.07407050	     -6.82371552	      2.95652425	    -13.47426549	      9.79151355	     -4.87506639	    -54.87280384	    -28.09050427	    -14.90713503	     99.78989165	      6.47115122	      0.00000000	      0.00000000	    -23.91255429	    -22.73946468	     -0.76280137	    119.09950149	      2.88184172	      0.00000000	      0.00000000
      0.91600000	      3.58065861	     -8.06232481	      7.07113120	     -2.13516410	      1.03895235	      0.23856355	     18.80507692	      7.38362002	    -11.72082219	    -18.86862486	     -2.67761207	     11.13990520	      4.77440383	     -7.20004281	     -9.28835151	      4.06592773	    -80.13640481	    -14.70341319	     -6.73929438	      3.22856576	    -13.92073061	     10.11695834	     -4.25068903	    -54.03048928	    -28.69259510	    -14.61711600	     99.91171772	      6.99214131	      0.00000000	      0.00000000	    -24.33547196	    -22.75739131	     -0.56726208	    117.85047726	      2.89063787	      0.00000000	      0.00000000
      0.92000000	      3.18298769	     -8.29643287	      8.89962391	     -2.12435019	      1.03379446	      0.23532765	     19.81670324	      6.71021016	    -14.24152454	    -21.35789820	      0.79703728	     12.53723029	      5.06932600	     -4.60768306	     -9.25178283	      6.51426014	    -83.22707486	    -13.70680664	     -6.10487964	      4.33242898	    -13.52891942	     10.93426172	     -5.74414797	    -53.06007824	    -29.26033677	    -14.41163490	    100.14663593	      9.35046427	      0.00000000	      0.00000000	    -24.06126177	    -22.63963526	     -0.21619415	    116.05232986	      3.07410620	      0.00000000	      0.00000000
      0.92400000	      2.88584296	     -8.25242048	      6.56342277	     -2.10902014	      1.02931507	      0.23957692	     20.17780911	      7.72521650	    -11.60502474	    -23.57968754	      4.03799164	     11.45646300	      4.84257241	     -3.93807829	     -9.26868110	      4.19641804	    -84.92289524	    -13.12487729	     -5.64991136	      5.31973933	    -13.54963180	     10.22556890	     -3.23274691	    -52.30696268	    -29.50430956	    -13.91264268	     99.95162602	     12.05676879	      0.00000000	      0.00000000	    -24.56296454	    -22.69883908	     -0.12786504	    114.52427032	      3.28092958	      0.00000000	      0.00000000
      0.92800000	      2.54918721	     -8.74165844	      7.29793157	     -2.09658098	      1.02422434	      0.23856116	     20.84579381	      7.90254465	    -12.78131294	    -25.58479105	      6.88712809	     11.73694200	      3.89910521	     -1.88572500	     -9.70275498	      5.29709621	    -87.51796994	    -12.15864032	     -4.80517442	      6.50948916	    -13.20605658	     10.97911112	     -3.69962420	    -51.32585644	    -29.99610706	    -13.49030736	     99.96067550	     16.05832745	      0.00000000	      0.00000000	    -24.67172999	    -22.54431214	      0.13754089	    112.75807315	      3.53420427	      0.00000000	      0.00000000
      0.93200000	      2.80068526	     -8.84835493	      6.69758879	     -2.08394628	      1.01990834	      0.23949251	     20.87931939	      8.39246657	    -12.07184637	    -27.63829675	      9.90730270	     11.59461845	     -3.03671745	     -0.98643731	     -9.78963248	      4.85305849	    -89.68557213	    -11.34116764	     -4.57293060	      6.32914812	    -13.78668647	     11.15305719	     -3.12565519	    -49.97970973	    -29.52915297	    -10.45631425	     90.43028606	    105.12543430	      0.00000000	      0.00000000	    -25.21311966	    -22.16216214	      0.56430204	    111.24737631	     10.04896171	      0.00000000	      0.00000000
      0.93600000	      3.05849082	     -9.17669187	      6.70388451	     -2.07118946	      1.01595070	      0.23950624	     20.79474710	      8.89840088	    -12.14494586	    -29.27299782	     11.99170067	     10.86971227	     -2.83816620	      0.10736603	    -10.12151014	      5.04870200	    -91.83310374	    -10.71256758	     -4.28479547	      6.53233165	    -14.28963856	     11.59288367	     -2.67662354	    -48.88941117	    -30.13869939	    -10.30190152	     90.49107141	    105.13612606	      0.00000000	      0.00000000	    -25.14607562	    -22.03574236	      0.72940552	    109.55698210	     10.11756915	      0.00000000	      0.00000000
      0.94000000	      2.84828109	     -9.54969144	      6.62925929	     -2.05864969	      1.01128232	      0.24032115	     21.38333616	      9.42510464	    -12.23379693	    -31.11925277	     13.63264597	     10.24013642	     -2.73566796	      1.80539122	    -10.56376222	      5.31894577	    -94.08176538	     -9.63189818	     -3.03219014	      6.97400382	    -14.28674167	     11.90985756	     -2.24500030	    -47.71850147	    -30.74567781	     -9.87319537	     90.46749338	    105.21018149	      0.00000000	      0.00000000	    -25.18704443	    -22.12997806	      1.00771571	    107.96358056	     10.34048224	      0.00000000	      0.00000000
